<svg xmlns="http://www.w3.org/2000/svg" version="1.1" xmlns:xlink="http://www.w3.org/1999/xlink" xmlns:svgjs="http://svgjs.dev/svgjs" width="2000" height="333" viewBox="0 0 2000 333"><g transform="matrix(1,0,0,1,-1.2121212121212466,0.9369072272970698)"><svg viewBox="0 0 396 66" data-background-color="#ffffff" preserveAspectRatio="xMidYMid meet" height="333" width="2000" xmlns="http://www.w3.org/2000/svg" xmlns:xlink="http://www.w3.org/1999/xlink"><g id="tight-bounds" transform="matrix(1,0,0,1,0.2400000000000091,-0.18569332432915076)"><svg viewBox="0 0 395.52 66.3713866486583" height="66.3713866486583" width="395.52"><g><svg viewBox="0 0 481.29893559866434 80.76577100578136" height="66.3713866486583" width="395.52"><g><rect width="5.270289854976151" height="70.12946831182173" x="66.71207544270351" y="5.318151346979818" fill="#000000" opacity="1" stroke-width="0" stroke="transparent" fill-opacity="1" class="rect-qz-0" data-fill-palette-color="primary" rx="1%" id="qz-0" data-palette-color="#6b7280"></rect></g><g transform="matrix(1,0,0,1,85.77893559866435,11.162273706298294)"><svg viewBox="0 0 395.52 58.44122359318477" height="58.44122359318477" width="395.52"><g id="textblocktransform"><svg viewBox="0 0 395.52 58.44122359318477" height="58.44122359318477" width="395.52" id="textblock"><g><svg viewBox="0 0 395.52 58.44122359318477" height="58.44122359318477" width="395.52"><g transform="matrix(1,0,0,1,0,0)"><svg width="395.52" viewBox="1.828871480559 -38.38 343.65112851944104 50.78" height="58.44122359318477" data-palette-color="#6b7280"><path d="M22.75-33.08L22.75-33.08Q24.1-31.2 25.5-28.23 26.9-25.27 28.22-21.73 29.54-18.19 30.6-14.49 31.67-10.79 32.35-7.37 33.03-3.96 33.13-1.29L33.13-1.29Q33.15 0 31.96 0L31.96 0 26.05 0Q24.9 0 24.85-1.15L24.85-1.15Q24.76-3.88 23.97-7.79L23.97-7.79 10.64-7.79Q9.96-3.98 9.86-1.15L9.86-1.15Q9.81 0 8.62 0L8.62 0 2.83 0Q2.39 0 2.1-0.26 1.81-0.51 1.83-1.15L1.83-1.15Q1.95-3.86 2.62-7.31 3.3-10.77 4.37-14.48 5.44-18.19 6.76-21.74 8.08-25.29 9.5-28.25 10.91-31.2 12.26-33.08L12.26-33.08Q12.96-34.08 13.76-34.55 14.55-35.01 15.72-35.01L15.72-35.01 19.24-35.01Q20.43-35.01 21.24-34.55 22.05-34.08 22.75-33.08ZM17.38-27.29L17.24-27.29Q15.63-24.73 14.28-21.17 12.94-17.6 11.96-13.84L11.96-13.84 22.56-13.84Q21.53-17.6 20.19-21.17 18.85-24.73 17.38-27.29L17.38-27.29ZM62.42-15.55L62.42-15.55 62.42-1.29Q62.42-0.56 62.12-0.28 61.81 0 61.08 0L61.08 0 56.05 0Q55.32 0 55.01-0.28 54.71-0.56 54.71-1.29L54.71-1.29 54.71-14.28Q54.71-16.94 53.59-18.16 52.46-19.38 50.53-19.38L50.53-19.38Q48.61-19.38 47.57-18.55 46.53-17.72 45.97-16.46L45.97-16.46 45.97-1.29Q45.97-0.56 45.66-0.28 45.36 0 44.63 0L44.63 0 39.6 0Q38.86 0 38.56-0.28 38.25-0.56 38.25-1.29L38.25-1.29 38.25-21.75Q38.25-22.34 38.5-22.66L38.5-22.66Q39.01-23.34 39.73-24.05 40.45-24.76 41.5-25.56L41.5-25.56Q41.82-25.81 42.11-25.81L42.11-25.81Q42.38-25.81 42.72-25.56L42.72-25.56Q43.75-24.76 44.48-24.02 45.21-23.29 45.77-22.51L45.77-22.51 45.9-22.51Q46.31-23.05 47.14-23.77 47.97-24.49 49.47-25.05 50.97-25.61 53.32-25.61L53.32-25.61Q55.61-25.61 57.69-24.68 59.76-23.75 61.09-21.56 62.42-19.36 62.42-15.55ZM78.9 0.61L78.9 0.61Q70.75 0.61 70.75-7.86L70.75-7.86 70.75-19.31 67.99-19.31Q67.26-19.31 66.97-19.62 66.69-19.92 66.69-20.65L66.69-20.65 66.69-23.66Q66.69-24.39 66.97-24.69 67.26-25 67.99-25L67.99-25 70.75-25 70.75-28.93Q70.75-29.52 70.99-29.83L70.99-29.83Q72.02-31.18 73.99-32.74L73.99-32.74Q74.34-32.98 74.6-32.98L74.6-32.98Q74.9-32.98 75.19-32.74L75.19-32.74Q76.24-31.93 76.96-31.23 77.68-30.52 78.19-29.83L78.19-29.83Q78.44-29.52 78.44-28.93L78.44-28.93 78.44-25 82.76-25Q83.49-25 83.77-24.69 84.05-24.39 84.05-23.66L84.05-23.66 84.05-20.65Q84.05-19.92 83.77-19.62 83.49-19.31 82.76-19.31L82.76-19.31 78.44-19.31 78.44-9.2Q78.44-5.3 81.27-5.3L81.27-5.3Q81.71-5.3 82.08-5.38 82.44-5.47 82.71-5.57L82.71-5.57Q83.22-5.76 83.43-5.71 83.64-5.66 83.81-5.18L83.81-5.18 85.22-1.39Q85.44-0.78 84.93-0.51L84.93-0.51Q84.57-0.34 83.16 0.13 81.76 0.61 78.9 0.61ZM88.18-33.2L88.18-33.2Q88.18-33.52 88.37-33.76 88.57-34.01 88.88-34.4L88.88-34.4Q89.57-35.18 90.47-36.05 91.37-36.91 92.3-37.72L92.3-37.72Q92.89-38.18 93.18-38.18L93.18-38.18Q93.47-38.18 94.08-37.72L94.08-37.72Q96.06-36.01 97.45-34.4L97.45-34.4Q97.77-34.03 97.98-33.78 98.19-33.52 98.19-33.2L98.19-33.2Q98.19-32.89 97.98-32.64 97.77-32.4 97.43-31.98L97.43-31.98Q96.77-31.23 95.89-30.36 95.01-29.49 94.08-28.71L94.08-28.71Q93.74-28.42 93.55-28.33 93.35-28.25 93.18-28.25L93.18-28.25Q93.01-28.25 92.83-28.33 92.64-28.42 92.25-28.71L92.25-28.71Q91.28-29.49 90.42-30.36 89.57-31.23 88.88-32.03L88.88-32.03Q88.57-32.42 88.37-32.65 88.18-32.89 88.18-33.2ZM97.01-23.71L97.01-1.29Q97.01-0.56 96.71-0.28 96.4 0 95.67 0L95.67 0 90.64 0Q89.91 0 89.6-0.28 89.3-0.56 89.3-1.29L89.3-1.29 89.3-23.71Q89.3-24.44 89.6-24.72 89.91-25 90.64-25L90.64-25 95.67-25Q96.4-25 96.71-24.72 97.01-24.44 97.01-23.71L97.01-23.71ZM116.3-25.63L116.3-25.63Q119.47-25.63 121.63-25.17 123.79-24.71 125.26-24.02 126.72-23.34 127.82-22.66L127.82-22.66 127.82 8.35Q127.82 8.94 127.58 9.25L127.58 9.25Q126.55 10.6 124.57 12.16L124.57 12.16Q124.23 12.4 123.96 12.4L123.96 12.4Q123.67 12.4 123.35 12.16L123.35 12.16Q122.3 11.35 121.58 10.64 120.86 9.94 120.35 9.25L120.35 9.25Q120.11 8.94 120.11 8.35L120.11 8.35 120.11-2.49 120.01-2.49Q119.47-1.81 118.62-1.1 117.76-0.39 116.41 0.1 115.05 0.59 112.93 0.59L112.93 0.59Q109.24 0.59 106.89-1.01 104.53-2.61 103.42-5.42 102.31-8.23 102.31-11.82L102.31-11.82Q102.31-15.75 103.6-18.87 104.9-22 107.95-23.82 111-25.63 116.3-25.63ZM116.03-19.73L116.03-19.73Q113.2-19.73 111.71-17.82 110.22-15.92 110.22-11.91L110.22-11.91Q110.22-5.64 115.4-5.64L115.4-5.64Q117.42-5.64 118.5-6.47 119.57-7.3 120.11-8.57L120.11-8.57 120.11-18.65Q119.57-19.04 118.59-19.38 117.62-19.73 116.03-19.73ZM143.13 0.61L143.13 0.61Q134.44 0.61 134.44-9.91L134.44-9.91 134.41-22.31Q134.41-22.9 134.66-23.22L134.66-23.22Q135.68-24.56 137.66-26.12L137.66-26.12Q138-26.37 138.27-26.37L138.27-26.37Q138.59-26.37 138.88-26.12L138.88-26.12Q139.93-25.32 140.65-24.61 141.37-23.9 141.88-23.22L141.88-23.22Q142.13-22.9 142.13-22.31L142.13-22.31 142.13-10.6Q142.13-5.3 146.33-5.3L146.33-5.3Q148.4-5.3 149.65-6.75 150.89-8.2 150.89-10.69L150.89-10.69 150.89-22.31Q150.89-22.9 151.13-23.22L151.13-23.22Q152.16-24.56 154.14-26.12L154.14-26.12Q154.48-26.37 154.75-26.37L154.75-26.37Q155.07-26.37 155.36-26.12L155.36-26.12Q156.41-25.32 157.13-24.61 157.85-23.9 158.36-23.22L158.36-23.22Q158.61-22.9 158.61-22.31L158.61-22.31 158.61-1.12Q158.61-0.66 158.29-0.33 157.97 0 157.48 0L157.48 0 153.82 0Q153.43 0 153.12-0.11 152.82-0.22 152.55-0.54L152.55-0.54 151.04-2.49 150.87-2.49Q150.48-1.93 149.66-1.2 148.84-0.46 147.29 0.07 145.74 0.61 143.13 0.61ZM177.45 0.61L177.45 0.61Q173.32 0.61 170.27-0.72 167.22-2.05 165.54-4.86 163.85-7.67 163.85-12.11L163.85-12.11Q163.85-18.77 167.27-22.19 170.69-25.61 176.35-25.61L176.35-25.61Q180.04-25.61 182.59-24.29 185.14-22.97 186.47-20.65 187.8-18.33 187.8-15.36L187.8-15.36Q187.8-12.45 186.31-11.3 184.82-10.16 181.97-10.16L181.97-10.16 171.49-10.16Q171.69-7.64 173.34-6.32 174.99-5 177.82-5L177.82-5Q180.06-5 181.42-5.68 182.77-6.35 183.31-6.74L183.31-6.74Q183.77-7.08 184.36-7.06L184.36-7.06Q184.82-7.06 185.69-6.87 186.56-6.69 187.41-6.2L187.41-6.2Q188.02-5.88 188.02-5.32L188.02-5.32Q188.02-5 187.9-4.42L187.9-4.42Q187.83-4.08 187.66-3.43 187.49-2.78 187.22-2.22L187.22-2.22Q187.07-1.95 186.75-1.71L186.75-1.71Q186.26-1.37 185.18-0.81 184.09-0.24 182.21 0.18 180.33 0.61 177.45 0.61ZM171.44-15.16L171.44-15.16 179.4-15.16Q180.65-15.16 180.65-16.31L180.65-16.31Q180.65-18.04 179.56-19.23 178.48-20.41 176.3-20.41L176.3-20.41Q173.94-20.41 172.82-18.9 171.71-17.38 171.44-15.16ZM207.23 0L199.81 0Q197.3 0 195.99-0.63 194.68-1.27 194.23-2.71 193.78-4.15 193.78-6.54L193.78-6.54 193.78-28.47Q193.78-30.91 194.23-32.34 194.68-33.76 195.99-34.39 197.3-35.01 199.81-35.01L199.81-35.01 206.53-35.01Q212.38-35.01 215.53-32.86 218.68-30.71 218.68-26.81L218.68-26.81Q218.68-24.88 217.8-23.29 216.93-21.7 215.5-20.58 214.07-19.46 212.38-18.9L212.38-18.9 212.38-18.8Q214.53-18.51 216.27-17.4 218-16.28 219.04-14.51 220.08-12.74 220.08-10.45L220.08-10.45Q220.08-7.03 218.43-4.7 216.78-2.37 213.89-1.18 210.99 0 207.23 0L207.23 0ZM201.67-26.17L201.67-8.86Q201.67-7.23 202.25-6.52 202.84-5.81 204.45-5.81L204.45-5.81 206.31-5.81Q208.77-5.81 210.27-7.08 211.77-8.35 211.77-10.55L211.77-10.55Q211.77-12.65 210.31-13.84 208.84-15.04 206.53-15.04L206.53-15.04 206.55-15.04Q205.96-15.04 205.67-15.21L205.67-15.21Q205.04-15.63 204.36-16.17 203.69-16.72 202.91-17.5L202.91-17.5Q202.67-17.82 202.67-17.97L202.67-17.97Q202.67-18.16 202.91-18.43L202.91-18.43Q203.69-19.21 204.36-19.78 205.04-20.34 205.67-20.73L205.67-20.73Q206.01-20.9 206.55-20.9L206.55-20.9 206.53-20.9Q207.97-20.9 209.17-21.97 210.38-23.05 210.38-25.34L210.38-25.34Q210.38-27.66 209.09-28.43 207.8-29.2 205.77-29.2L205.77-29.2 204.45-29.2Q202.84-29.2 202.25-28.52 201.67-27.83 201.67-26.17L201.67-26.17ZM224.2-33.2L224.2-33.2Q224.2-33.52 224.39-33.76 224.59-34.01 224.91-34.4L224.91-34.4Q225.59-35.18 226.49-36.05 227.4-36.91 228.32-37.72L228.32-37.72Q228.91-38.18 229.2-38.18L229.2-38.18Q229.5-38.18 230.11-37.72L230.11-37.72Q232.08-36.01 233.48-34.4L233.48-34.4Q233.79-34.03 234-33.78 234.21-33.52 234.21-33.2L234.21-33.2Q234.21-32.89 234-32.64 233.79-32.4 233.45-31.98L233.45-31.98Q232.79-31.23 231.91-30.36 231.03-29.49 230.11-28.71L230.11-28.71Q229.77-28.42 229.57-28.33 229.37-28.25 229.2-28.25L229.2-28.25Q229.03-28.25 228.85-28.33 228.67-28.42 228.28-28.71L228.28-28.71Q227.3-29.49 226.44-30.36 225.59-31.23 224.91-32.03L224.91-32.03Q224.59-32.42 224.39-32.65 224.2-32.89 224.2-33.2ZM233.04-23.71L233.04-1.29Q233.04-0.56 232.73-0.28 232.43 0 231.69 0L231.69 0 226.66 0Q225.93 0 225.63-0.28 225.32-0.56 225.32-1.29L225.32-1.29 225.32-23.71Q225.32-24.44 225.63-24.72 225.93-25 226.66-25L226.66-25 231.69-25Q232.43-25 232.73-24.72 233.04-24.44 233.04-23.71L233.04-23.71ZM248.51 0.61L248.51 0.61Q245.27 0.61 242.98-0.99 240.7-2.59 239.52-5.41 238.33-8.23 238.33-11.91L238.33-11.91Q238.33-16.77 240.05-19.79 241.77-22.8 244.91-24.22 248.05-25.63 252.32-25.63L252.32-25.63Q253.79-25.63 254.75-25.49 255.71-25.34 256.13-25.22L256.13-25.22 256.13-34.33Q256.13-34.91 256.37-35.23L256.37-35.23Q257.4-36.57 259.38-38.13L259.38-38.13Q259.72-38.38 259.99-38.38L259.99-38.38Q260.3-38.38 260.6-38.13L260.6-38.13Q261.65-37.33 262.37-36.62 263.09-35.91 263.6-35.23L263.6-35.23Q263.84-34.91 263.84-34.33L263.84-34.33 263.84-1.12Q263.84-0.66 263.53-0.33 263.21 0 262.72 0L262.72 0 259.08 0Q258.69 0 258.39-0.11 258.08-0.22 257.81-0.54L257.81-0.54 256.3-2.49 256.13-2.49Q255.81-2 254.99-1.26 254.18-0.51 252.63 0.05 251.08 0.61 248.51 0.61ZM250.88-5.64L250.88-5.64Q253.08-5.64 254.34-6.47 255.59-7.3 256.13-8.57L256.13-8.57 256.13-18.8Q255.74-19.04 254.84-19.38 253.93-19.73 252.3-19.73L252.3-19.73Q249.27-19.73 247.76-17.75 246.24-15.77 246.24-12.43L246.24-12.43Q246.24-8.96 247.51-7.3 248.78-5.64 250.88-5.64ZM279.27 0.61L279.27 0.61Q276.02 0.61 273.74-0.99 271.46-2.59 270.28-5.41 269.09-8.23 269.09-11.91L269.09-11.91Q269.09-16.77 270.81-19.79 272.53-22.8 275.67-24.22 278.81-25.63 283.08-25.63L283.08-25.63Q284.55-25.63 285.51-25.49 286.47-25.34 286.89-25.22L286.89-25.22 286.89-34.33Q286.89-34.91 287.13-35.23L287.13-35.23Q288.16-36.57 290.14-38.13L290.14-38.13Q290.48-38.38 290.75-38.38L290.75-38.38Q291.06-38.38 291.36-38.13L291.36-38.13Q292.41-37.33 293.13-36.62 293.85-35.91 294.36-35.23L294.36-35.23Q294.6-34.91 294.6-34.33L294.6-34.33 294.6-1.12Q294.6-0.66 294.29-0.33 293.97 0 293.48 0L293.48 0 289.84 0Q289.45 0 289.15-0.11 288.84-0.22 288.57-0.54L288.57-0.54 287.06-2.49 286.89-2.49Q286.57-2 285.75-1.26 284.94-0.51 283.39 0.05 281.84 0.61 279.27 0.61ZM281.64-5.64L281.64-5.64Q283.84-5.64 285.09-6.47 286.35-7.3 286.89-8.57L286.89-8.57 286.89-18.8Q286.5-19.04 285.6-19.38 284.69-19.73 283.06-19.73L283.06-19.73Q280.03-19.73 278.52-17.75 277-15.77 277-12.43L277-12.43Q277-8.96 278.27-7.3 279.54-5.64 281.64-5.64ZM313.45 0.61L313.45 0.61Q309.32 0.61 306.27-0.72 303.22-2.05 301.54-4.86 299.85-7.67 299.85-12.11L299.85-12.11Q299.85-18.77 303.27-22.19 306.69-25.61 312.35-25.61L312.35-25.61Q316.04-25.61 318.59-24.29 321.14-22.97 322.47-20.65 323.8-18.33 323.8-15.36L323.8-15.36Q323.8-12.45 322.31-11.3 320.82-10.16 317.97-10.16L317.97-10.16 307.49-10.16Q307.69-7.64 309.34-6.32 310.98-5 313.82-5L313.82-5Q316.06-5 317.42-5.68 318.77-6.35 319.31-6.74L319.31-6.74Q319.77-7.08 320.36-7.06L320.36-7.06Q320.82-7.06 321.69-6.87 322.56-6.69 323.41-6.2L323.41-6.2Q324.02-5.88 324.02-5.32L324.02-5.32Q324.02-5 323.9-4.42L323.9-4.42Q323.83-4.08 323.65-3.43 323.48-2.78 323.21-2.22L323.21-2.22Q323.07-1.95 322.75-1.71L322.75-1.71Q322.26-1.37 321.18-0.81 320.09-0.24 318.21 0.18 316.33 0.61 313.45 0.61ZM307.44-15.16L307.44-15.16 315.4-15.16Q316.65-15.16 316.65-16.31L316.65-16.31Q316.65-18.04 315.56-19.23 314.47-20.41 312.3-20.41L312.3-20.41Q309.93-20.41 308.82-18.9 307.71-17.38 307.44-15.16ZM336.88-22.17L336.88-20.36 336.98-20.36Q338.81-25.44 343.57-25.44L343.57-25.44Q344.18-25.44 344.57-25.38 344.97-25.32 345.11-25.27L345.11-25.27Q345.48-25.15 345.48-24.71L345.48-24.71 345.48-18.82Q345.48-18.07 344.6-18.41L344.6-18.41Q344.31-18.53 343.76-18.66 343.21-18.8 342.23-18.8L342.23-18.8Q339.72-18.8 338.3-16.96 336.88-15.11 336.88-11.94L336.88-11.94 336.88-1.29Q336.88-0.56 336.58-0.28 336.27 0 335.54 0L335.54 0 330.51 0Q329.78 0 329.47-0.28 329.17-0.56 329.17-1.29L329.17-1.29 329.17-21.75Q329.17-22.34 329.41-22.66L329.41-22.66Q329.93-23.34 330.65-24.05 331.37-24.76 332.42-25.56L332.42-25.56Q332.61-25.71 332.81-25.76 333-25.81 333.15-25.81L333.15-25.81Q333.49-25.81 333.83-25.56L333.83-25.56Q335.86-23.97 336.66-22.85L336.66-22.85Q336.88-22.56 336.88-22.17L336.88-22.17Z" opacity="1" transform="matrix(1,0,0,1,0,0)" fill="#000000" class="wordmark-text-0" data-fill-palette-color="primary" id="text-0"></path></svg></g></svg></g></svg></g></svg></g><g><svg viewBox="0 0 52.915505141718825 80.76577100578136" height="80.76577100578136" width="52.915505141718825"><g><svg xmlns="http://www.w3.org/2000/svg" xmlns:xlink="http://www.w3.org/1999/xlink" version="1.1" x="0" y="0" viewBox="13 3 38 58" style="enable-background:new 0 0 64 64;" xml:space="preserve" height="80.76577100578136" width="52.915505141718825" class="icon-icon-0" data-fill-palette-color="accent" id="icon-0"><path d="M46.295 53h-4.889c-2.648 0-5.247-0.508-7.684-1.467 0.072-0.045 0.147-0.083 0.219-0.129l0.19-0.121C37.507 49.135 41.406 48 45.406 48h4.125C48.745 49.825 47.656 51.514 46.295 53zM30.132 49.717l-0.19-0.121C26.245 47.243 21.975 46 17.594 46h-3.851c-0.194-0.655-0.351-1.322-0.47-2h37.454c-0.118 0.678-0.276 1.345-0.47 2h-4.851c-4.381 0-8.651 1.243-12.348 3.596l-0.19 0.121c-0.447 0.284-0.904 0.548-1.368 0.797C31.036 50.265 30.579 50.001 30.132 49.717zM13 40.869c0-0.292 0.029-0.579 0.042-0.869h37.915C50.971 40.29 51 40.577 51 40.869c0 0.379-0.014 0.756-0.038 1.131H13.038C13.014 41.625 13 41.248 13 40.869zM31.848 31.983L32 31.873l0.152 0.111C35.766 34.611 40.037 36 44.504 36h5.818c0.183 0.655 0.323 1.323 0.431 2H13.247c0.108-0.677 0.248-1.345 0.431-2h5.818C23.963 36 28.234 34.611 31.848 31.983zM49.647 34h-5.143c-3.855 0-7.542-1.156-10.711-3.323C36.727 28.925 40.049 28 43.504 28h2.082l0.143 0.143C47.434 29.848 48.754 31.836 49.647 34zM23.464 22.95C25.744 20.67 27 17.639 27 14.415c0-3.751-1.699-7.225-4.66-9.528L19.915 3h24.171L41.66 4.886C38.699 7.19 37 10.663 37 14.415c0 3.224 1.256 6.255 3.536 8.535l3.05 3.05h-0.082c-4.125 0-8.076 1.198-11.504 3.449C28.573 27.198 24.622 26 20.496 26h-0.082L23.464 22.95zM18.271 28.143L18.414 28h2.082c3.455 0 6.777 0.926 9.711 2.677C27.038 32.844 23.351 34 19.496 34h-5.143C15.246 31.836 16.566 29.848 18.271 28.143zM14.468 48h3.125c4 0 7.899 1.135 11.274 3.283l0.19 0.121c0.072 0.046 0.147 0.084 0.219 0.129C26.841 52.492 24.242 53 21.594 53h-3.889C16.344 51.514 15.255 49.825 14.468 48zM19.85 55h1.744c3.448 0 6.822-0.781 9.906-2.255C34.585 54.219 37.958 55 41.406 55h2.744l-7.5 6H27.35L19.85 55z" fill="#000000" data-fill-palette-color="accent"></path></svg></g></svg></g></svg></g><defs></defs></svg><rect width="395.52" height="66.3713866486583" fill="none" stroke="none" visibility="hidden"></rect></g></svg></g></svg>